<svg version="1" xmlns="http://www.w3.org/2000/svg" width="666.667" height="666.667" viewBox="0 0 500.000000 500.000000"><path d="M0 250v250h500V0H0v250zM359.3 56.7c.3.4 2.1 8.2 4.1 17.3 1.9 9.1 8.1 37.2 13.6 62.5 5.6 25.3 11.9 53.9 14 63.5 5.3 24.4 23.4 106.8 32.4 147.5 4.1 18.7 10.4 47.7 14.1 64.3 3.7 16.7 6.4 30.7 6 31-.4.4-87.3.9-193.1 1.1-145.3.2-192.4 0-192.4-.9 0-.6.4-3 1-5.3.5-2.3 7.3-33.2 15-68.7 19.6-90.9 63.7-293.9 65.8-303.5l1.8-8L155 57c22.9-.9 203.8-1.1 204.3-.3z"/><path d="M127.1 248.2c0 64.5.4 116.4.8 115.3 4.7-11.5 7.6-18.9 11.6-29.5 2.7-6.9 5.7-14.4 6.7-16.7 1-2.3 1.8-4.7 1.8-5.3 0-.6.8-2.7 1.9-4.8 1-2 2.9-6.6 4.1-10.2 1.3-3.6 3.3-8.8 4.6-11.7 1.3-2.8 2.4-5.7 2.4-6.4 0-.6 1.1-3.7 2.5-6.8 3.4-7.9 9.5-23.3 10-25.3.2-.9 1.7-4.8 3.4-8.6 1.7-3.9 3.1-7.5 3.1-8 0-.6 1.4-4 3-7.7 1.7-3.7 3-7.1 3-7.7 0-.5 1.4-4.1 3.1-8 1.7-3.8 3.2-7.7 3.4-8.6.2-1 1.3-4 2.5-6.7 1.2-2.8 2.5-5.9 2.9-7 .5-1.1 1.8-4.5 3.1-7.5 1.2-3 2.8-7.5 3.6-10 .8-2.5 2.3-6.3 3.3-8.5s2.4-5.8 3.1-8c.7-2.2 2.6-6.8 4.1-10.3 1.6-3.4 2.9-6.9 2.9-7.7 0-1.3-6.1-1.5-45.5-1.5H127l.1 117.2zM284 132.5c0 .8 1.1 3.8 2.4 6.7 1.3 2.9 3.6 8.7 5.1 12.8 1.6 4.1 3.4 8.6 4.2 10 .7 1.4 1.3 3.1 1.3 3.9 0 .7 1.1 3.9 2.4 7 4.4 10.2 9.7 23.6 10.2 26 .3 1.3 1.3 4 2.3 6 1 2 2.9 6.5 4.1 10.1 1.2 3.6 3.1 8.3 4 10.5 1 2.2 2.4 5.8 3 8 .7 2.2 1.6 4.4 2 5 .4.5 1.5 3.2 2.5 6 1.8 5.2 2 5.9 5.4 13.9 1.2 2.7 2.1 5.2 2.1 5.7s1.1 3.2 2.4 6.1c2.3 5.2 4 10.1 3.7 10.6-.1.1.5 1.5 1.3 3.1 1.7 3.3 8.1 19.4 16.5 42 1.8 4.6 4.1 10.4 5.2 12.9 1.2 2.5 2.3 5.6 2.5 7 .3 1.4 1.2 3.8 2 5.5.9 1.6 2.7 5.7 4 9.1l2.3 6.1.1-117.8V131h-45.5c-39.4 0-45.5.2-45.5 1.5zM196.1 250.2c0 32.1.3 57.6.6 56.8 1.3-3.2 39.3-114.3 39.3-114.6 0-.2-9-.4-20-.4h-20l.1 58.2zM283.5 249.2c11.6 31.5 21.4 58 21.8 58.8.3.8.6-24.9.6-57.3l.1-58.7h-43.7l21.2 57.2z"/></svg>